<?xml version="1.0" encoding="utf-8"?>
<!-- Generator: Adobe Illustrator 18.1.0, SVG Export Plug-In . SVG Version: 6.00 Build 0)  -->
<svg version="1.1" id="Layer_1" xmlns="http://www.w3.org/2000/svg" xmlns:xlink="http://www.w3.org/1999/xlink" x="0px" y="0px"
	 viewBox="0 0 132.3 52.3" enable-background="new 0 0 132.3 52.3" xml:space="preserve">
<g>
	<path fill-rule="evenodd" clip-rule="evenodd" fill="#50B848" d="M72.7,51.5c0,0,0-0.1,0-0.1l-2.3-8.7h-1.4c-0.3,0-0.6,0.1-0.7,0.4
		L66,51.4c0,0,0,0.1,0,0.1c0,0.2,0.2,0.5,0.5,0.5l0.3,0.1c0.3,0.1,0.6-0.1,0.7-0.4l0.6-2.3h2.4l0.6,2.3c0.1,0.3,0.4,0.5,0.7,0.4
		l0.3-0.1C72.5,52,72.7,51.8,72.7,51.5 M70.2,48.2h-1.7l0.5-1.7c0.2-0.9,0.4-2.6,0.4-2.6c0,0,0.2,1.7,0.4,2.6L70.2,48.2z M78.7,50.4
		v-0.5c0-1-0.7-1.6-1.8-1.6h-1c-0.5,0-0.7-0.3-0.7-0.7c0-0.4,0.2-0.7,0.7-0.7h2.3V46c0-0.3-0.3-0.5-0.6-0.5h-2
		c-1.1,0-1.9,0.8-1.9,1.7v0.5c0,0.9,0.7,1.6,1.8,1.6h1c0.5,0,0.7,0.4,0.7,0.8c0,0.3-0.2,0.7-0.7,0.7h-2.6v0.8c0,0.3,0.3,0.5,0.6,0.5
		h2.4C77.8,52.1,78.7,51.3,78.7,50.4 M84.8,50.4v-0.5c0-1-0.7-1.6-1.8-1.6h-1c-0.5,0-0.7-0.3-0.7-0.7c0-0.4,0.2-0.7,0.7-0.7h2.3V46
		c0-0.3-0.3-0.5-0.6-0.5h-2c-1.1,0-1.9,0.8-1.9,1.7v0.5c0,0.9,0.7,1.6,1.8,1.6h0.9c0.5,0,0.7,0.4,0.7,0.8c0,0.3-0.2,0.7-0.7,0.7
		h-2.6v0.8c0,0.3,0.3,0.5,0.6,0.5h2.4C83.9,52.1,84.8,51.3,84.8,50.4 M91.7,50.4v-3.1c0-1-0.9-1.7-1.9-1.7h-1.5
		c-1.1,0-1.9,0.8-1.9,1.7v3.1c0,1,0.9,1.7,1.9,1.7h1.5C90.8,52.1,91.7,51.3,91.7,50.4 M90.1,50.2c0,0.3-0.3,0.6-0.7,0.6h-0.8
		c-0.4,0-0.7-0.3-0.7-0.6v-2.8c0-0.3,0.3-0.6,0.7-0.6h0.8c0.4,0,0.7,0.3,0.7,0.6V50.2z M98,51.6v-0.8h-2.1c-0.4,0-0.7-0.3-0.7-0.6
		v-2.8c0-0.3,0.3-0.6,0.7-0.6h1.9V46c0-0.3-0.3-0.5-0.6-0.5h-1.7c-1.1,0-1.9,0.8-1.9,1.7v3.1c0,1,0.9,1.7,1.9,1.7h1.9
		C97.7,52.1,98,51.9,98,51.6 M101,51.5v-5.5c0-0.3-0.3-0.6-0.6-0.6H100c-0.3,0-0.6,0.3-0.6,0.6v5.5c0,0.3,0.3,0.6,0.6,0.6h0.4
		C100.7,52.1,101,51.9,101,51.5 M108.2,51.6v-4.5c0-0.9-0.6-1.6-2-1.6h-2.2c-0.3,0-0.6,0.2-0.6,0.4v0.9h2.6c0.4,0,0.6,0.3,0.6,0.5v1
		c0,0.1,0,0.2-0.1,0.2c-0.4,0-0.7-0.7-1.6-0.7h-0.2c-1.1,0-1.8,0.8-1.8,1.7v0.9c0,0.9,0.7,1.7,1.8,1.7h0.2c1,0,1.2-0.7,1.6-0.7
		c0.1,0,0.2,0,0.3,0.1l0.4,0.5h0.5C108,52.1,108.2,51.8,108.2,51.6 M106.6,50.2c0,0.3-0.3,0.6-0.7,0.6H105c-0.4,0-0.7-0.3-0.7-0.6
		v-0.5c0-0.3,0.3-0.6,0.7-0.6h0.9c0.4,0,0.7,0.3,0.7,0.6V50.2z M114.2,46.8V46c0-0.3-0.3-0.5-0.6-0.5h-1.2v-2.3
		c0-0.3-0.3-0.6-0.6-0.6h-0.4c-0.3,0-0.6,0.3-0.6,0.6v2.3H110c-0.3,0-0.6,0.2-0.6,0.5v0.3c0,0.3,0.3,0.5,0.6,0.5h0.7v4.8
		c0,0.3,0.3,0.6,0.6,0.6h0.4c0.3,0,0.6-0.3,0.6-0.6v-4.8H114.2z M116.8,51.5v-5.5c0-0.3-0.3-0.6-0.6-0.6h-0.4
		c-0.3,0-0.6,0.3-0.6,0.6v5.5c0,0.3,0.3,0.6,0.6,0.6h0.4C116.5,52.1,116.8,51.9,116.8,51.5 M124.2,50.4v-3.1c0-1-0.9-1.7-1.9-1.7
		h-1.5c-1.1,0-1.9,0.8-1.9,1.7v3.1c0,1,0.9,1.7,1.9,1.7h1.5C123.3,52.1,124.2,51.3,124.2,50.4 M122.6,50.2c0,0.3-0.3,0.6-0.7,0.6
		h-0.8c-0.4,0-0.7-0.3-0.7-0.6v-2.8c0-0.3,0.3-0.6,0.7-0.6h0.8c0.4,0,0.7,0.3,0.7,0.6V50.2z M131.4,51.5v-4.4c0-0.9-0.6-1.7-1.7-1.7
		h-0.2c-0.9,0-1.4,0.7-1.7,0.7c-0.1,0-0.2,0-0.2-0.1l-0.4-0.5h-0.5c-0.4,0-0.6,0.3-0.6,0.5v5.5c0,0.3,0.3,0.6,0.6,0.6h0.4
		c0.3,0,0.6-0.3,0.6-0.6v-4.2c0-0.3,0.3-0.6,0.7-0.6h0.9c0.4,0,0.7,0.3,0.7,0.6v4.2c0,0.3,0.3,0.6,0.6,0.6h0.4
		C131.1,52.1,131.4,51.9,131.4,51.5"/>
	<path fill-rule="evenodd" clip-rule="evenodd" fill="#005AAA" d="M56.7,52.3h-6.9c-1,0-1.7-0.6-1.7-1.6v-0.6c0-1,0.7-1.6,1.7-1.6
		h5.3c2.7,0,3.7-1.5,3.7-3.6v-7.7c0-0.5-0.2-1.1-0.7-1.1c-1.3,0-2.6,2.5-6,2.5h-0.9c-3.5,0-6.3-2.9-6.3-6.4V17.9
		c0-3.7,2.8-6.5,6.3-6.5h0.9c3.2,0,4.5,2.7,6,2.7c0.4,0,0.7-0.3,0.8-0.6l0.7-1.3c0.2-0.3,0.6-0.6,1.2-0.6h0.8c0.9,0,1.3,0.8,1.3,1.4
		v33C63,49.4,60.2,52.3,56.7,52.3 M58.8,19c0-2-1.6-3.6-3.6-3.6h-2.5c-1.9,0-3.5,1.6-3.5,3.6v12.2c0,1.9,1.6,3.5,3.5,3.5h2.5
		c2,0,3.6-1.6,3.6-3.5V19z"/>
	<path fill="#005AAA" d="M13.8,7.1c0-1.6-1.2-3.1-3.1-3.1H7.3C5.6,4,4.2,5.5,4.2,7.1v10.4h6.2c2.1,0,3.4-1.8,3.4-3.2 M11.4,21.3H4.2
		v15.5c0,1-0.8,1.7-1.7,1.7H1.7c-1,0-1.7-0.7-1.7-1.7V1.5C0,1,0.4,0.2,1.3,0.2h0.8c0.6,0,1,0.3,1.2,0.6L4,2.1
		c0.2,0.3,0.4,0.6,0.8,0.6c1.4,0,2.7-2.7,6-2.7h0.9C15.2,0,18,2.8,18,6.4v8.3C18,18.1,14.9,21.3,11.4,21.3"/>
	<path fill="#005AAA" d="M33.9,29c0-2-1.6-3.6-3.6-3.6h-2.4c-2,0-3.6,1.6-3.6,3.6v2.2c0,2,1.6,3.6,3.6,3.6h2.4c2,0,3.6-1.6,3.6-3.6
		 M36.8,38.5H36c-0.6,0-1-0.4-1.2-0.8l-0.5-1c-0.1-0.2-0.3-0.6-0.9-0.6c-1.4,0-2.6,2.5-6,2.5h-0.9c-3.5,0-6.3-2.9-6.3-6.4v-4.4
		c0-3.7,2.8-6.5,6.3-6.5h0.9c3.2,0,4.5,2.7,6,2.7c0.5,0,0.7-0.4,0.7-1v-4.1c0-2.2-1.2-3.6-3.7-3.6h-6.5c-1,0-1.7-0.6-1.7-1.6v-0.6
		c0-1,0.7-1.6,1.7-1.6h8c3.4,0,6.4,2.8,6.4,6.2v19.3C38.1,37.8,37.6,38.5,36.8,38.5"/>
	<path fill="#005AAA" d="M83.7,18.5c0-1.8-1.4-3.1-3.1-3.1h-3.5c-1.6,0-3.1,1.3-3.1,3.1v4.8h9.6 M84.6,26.8H74.1v4.5
		c0,2.1,1.2,3.5,3.7,3.5h5.8c1,0,1.7,0.6,1.7,1.6v0.6c0,1-0.7,1.6-1.7,1.6h-7.5c-3.3,0-6.2-2.9-6.2-6.5V17.9c0-3.5,3-6.2,6.5-6.2
		h4.9c3.5,0,6.5,2.8,6.5,6.2v5.5C87.9,25.8,86.4,26.8,84.6,26.8"/>
	<path fill="#005AAA" d="M106.8,15.4h-5.9v21.4c0,1-0.8,1.7-1.7,1.7h-0.8c-1,0-1.7-0.7-1.7-1.7V15.4h-3.2c-1,0-1.7-0.6-1.7-1.6v-0.6
		c0-1,0.7-1.6,1.7-1.6h3.2V1.9c0-1,0.7-1.7,1.7-1.7h0.8c0.9,0,1.7,0.7,1.7,1.7v9.8h5.9c1,0,1.7,0.6,1.7,1.6v0.6
		C108.5,14.8,107.7,15.4,106.8,15.4"/>
	<path fill="#50B848" d="M115.8,9.7l-1.6,2.8c-0.2,0.3-0.6,0.5-0.9,0.3l-0.5-0.2c-0.3-0.2-0.6-0.6-0.4-1l1-2.1
		c0.2-0.4,0.3-0.9,0.3-1.1c0-0.3-0.1-0.7-0.5-0.9c-0.7-0.3-1.7-0.7-1.7-1.9V1.8c0-1.1,1-1.6,1.8-1.6h1.8c0.8,0,1.6,0.6,1.6,1.6v4.4
		C116.7,7.4,116.4,8.7,115.8,9.7"/>
	<path fill="#005AAA" d="M126.5,38.5h-9.6c-1,0-1.7-0.6-1.7-1.6v-0.6c0-1,0.7-1.6,1.7-1.6h8.7c1.9,0,2.5-2,2.5-3.2v-2.3
		c0-1-0.6-2.4-2.5-2.4h-4.8c-2.8,0-5.6-2.2-5.6-5.6v-3.7c0-2.3,2.3-5.9,6.5-5.9h7.2c1,0,1.7,0.6,1.7,1.6v0.6c0,1-0.7,1.6-1.7,1.6
		h-6.2c-2.1,0-3.2,1.2-3.2,2.9v2.1c0,1.3,1.1,2.8,3.1,2.8h4.7c2.7,0,5.1,1.7,5.1,5.1v3.8C132.3,36.1,129.9,38.5,126.5,38.5"/>
</g>
</svg>
