<?xml version="1.0" encoding="utf-8"?>
<!-- Generator: Adobe Illustrator 18.1.0, SVG Export Plug-In . SVG Version: 6.00 Build 0)  -->
<svg version="1.1" id="All_glyphs" xmlns="http://www.w3.org/2000/svg" xmlns:xlink="http://www.w3.org/1999/xlink" x="0px" y="0px"
	 viewBox="0 0 45.7 45.7" enable-background="new 0 0 45.7 45.7" xml:space="preserve">
<g>
	<path fill="#50B848" d="M37.7,0.9L22.9,15.8L8,0.9c-2-2-3.7-0.5-5.7,1.4S-1,6.1,0.9,8l14.8,14.8L0.9,37.7c-2,2-0.5,3.7,1.4,5.7
		c2,2,3.7,3.4,5.7,1.4l14.8-14.8l14.8,14.8c2,2,3.7,0.5,5.7-1.4c2-2,3.4-3.7,1.4-5.7L29.9,22.9L44.8,8c2-2,0.5-3.7-1.4-5.7
		C41.4,0.4,39.7-1,37.7,0.9z"/>
</g>
</svg>
