<?xml version="1.0" encoding="utf-8"?>
<!-- Generator: Adobe Illustrator 18.1.0, SVG Export Plug-In . SVG Version: 6.00 Build 0)  -->
<svg version="1.1" id="Layer_1" xmlns="http://www.w3.org/2000/svg" xmlns:xlink="http://www.w3.org/1999/xlink" x="0px" y="0px"
	 viewBox="43 170.9 451.9 226" enable-background="new 43 170.9 451.9 226" xml:space="preserve">
<g>
	<g>
		<path fill="#3B5998" d="M268.7,170.9H43v226h225.7V170.9z M138,357.1v-72.7h-15v-24.8h15c0,0,0-3.4,0-19.4
			c0-18.2,9.7-27.9,31.3-27.9c3.4,0,20.1,0,20.1,0v25.4c0,0-11.3,0-15.7,0c-5.6,0-6.6,2.2-6.6,8.1c0,4.7,0,13.8,0,13.8h22.6
			l-2.2,24.4h-20.4v73L138,357.1L138,357.1z"/>
	</g>
	<g>
		<path d="M494.9,170.9H269.3v226h225.7V170.9z M364.2,357.1v-72.7h-15v-24.8h15c0,0,0-3.4,0-19.4c0-18.2,9.7-27.9,31.3-27.9
			c3.4,0,20.1,0,20.1,0v25.4c0,0-11.3,0-15.7,0c-5.6,0-6.6,2.2-6.6,8.1c0,4.7,0,13.8,0,13.8H416l-2.2,24.4h-20.4v73L364.2,357.1
			L364.2,357.1z"/>
	</g>
</g>
</svg>
