<?xml version="1.0" encoding="utf-8"?>
<!-- Generator: Adobe Illustrator 18.1.0, SVG Export Plug-In . SVG Version: 6.00 Build 0)  -->
<svg version="1.1" id="Layer_1" xmlns="http://www.w3.org/2000/svg" xmlns:xlink="http://www.w3.org/1999/xlink" x="0px" y="0px"
	 viewBox="1284.3 732.2 72 72.1" enable-background="new 1284.3 732.2 72 72.1" xml:space="preserve">
<g>
	<path fill="#D13F2D" d="M1284.3,732.2v72.1h35.6c0.1,0,0.3,0,0.4,0s0.3,0,0.4,0h35.7v-72.1H1284.3z M1314.4,789.8
		c-6.7,0-12.3-2.9-12.3-7.8c0-3.8,2.4-8.6,13.5-8.6c-1.7-1.3-2.1-3.2-1-5.3c-6.5,0-9.9-3.8-9.9-8.7c0-4.8,3.5-9.1,10.8-9.1
		c1.8,0,11.6,0,11.6,0l-2.6,2.7h-3c2.1,1.2,3.3,3.8,3.3,6.5c0,2.6-1.4,4.6-3.4,6.2c-3.6,2.8-2.7,4.3,1.1,7c3.7,2.8,4.9,4.9,4.9,8.1
		C1327.2,784.9,1323.6,789.8,1314.4,789.8z M1342.3,758.9h-5.3v5.3h-2.7v-5.3h-5.3v-2.7h5.3v-5.3h2.7v5.3h5.3V758.9z"/>
	<path fill="#D13F2D" d="M1320,759.8c-0.5-4.1-3.2-7.5-6.3-7.5c-3.1-0.1-5.2,3-4.7,7.1c0.5,4.1,3.5,7,6.6,7
		C1318.8,766.5,1320.6,763.8,1320,759.8z"/>
	<path fill="#D13F2D" d="M1315,774.8c-4.6-0.1-8.6,2.9-8.6,6.4c0,3.5,3.4,6.5,8,6.5c5.9,0,8.8-2.8,8.8-6.3
		C1323.2,778,1320.2,774.8,1315,774.8z"/>
</g>
</svg>
