<?xml version="1.0" encoding="utf-8"?>
<!-- Generator: Adobe Illustrator 18.1.0, SVG Export Plug-In . SVG Version: 6.00 Build 0)  -->
<svg version="1.1" id="Layer_1" xmlns="http://www.w3.org/2000/svg" xmlns:xlink="http://www.w3.org/1999/xlink" x="0px" y="0px"
	 viewBox="1565.4 634.9 72 72.1" enable-background="new 1565.4 634.9 72 72.1" xml:space="preserve">
<g>
	<path fill="#0375B6" d="M1565.4,634.9V707h36h36v-72.1H1565.4z M1587.8,659.5c-2.6,0-4.7-2.1-4.7-4.7c0-2.6,2.1-4.7,4.7-4.7
		c2.6,0,4.7,2.1,4.7,4.7C1592.4,657.4,1590.3,659.5,1587.8,659.5z M1591.8,662.9v25.5h-7.9v-25.5H1591.8z M1596.8,688.4v-25.5h7.6
		v3.4c0,0,2.3-4.2,7.7-4.2s9.3,3.3,9.3,10.1c0,6.8,0,16.2,0,16.2h-7.9c0,0,0-9.7,0-13.4c0-3.7-1.4-5.7-4.3-5.7
		c-3.2,0-4.8,2.1-4.8,5.7c0,3.9,0,13.4,0,13.4H1596.8z"/>
</g>
</svg>
