<?xml version="1.0" encoding="utf-8"?>
<!-- Generator: Adobe Illustrator 18.1.0, SVG Export Plug-In . SVG Version: 6.00 Build 0)  -->
<svg version="1.1" id="Layer_1" xmlns="http://www.w3.org/2000/svg" xmlns:xlink="http://www.w3.org/1999/xlink" x="0px" y="0px"
	 viewBox="1565.8 634.9 1199.1 600" enable-background="new 1565.8 634.9 1199.1 600" xml:space="preserve">
<g>
	<g>
		<path fill="#0375B6" d="M1565.8,634.9v600h299.6H2165v-600H1565.8z M1752.2,839.6c-21.6,0-39.1-17.5-39.1-39.1
			c0-21.6,17.5-39.1,39.1-39.1c21.6,0,39.1,17.5,39.1,39.1C1790.5,822.1,1773,839.6,1752.2,839.6z M1785.5,867.9v212.2h-65.7V867.9
			H1785.5z M1827.1,1080.1V867.9h63.2v28.3c0,0,19.1-35,64.1-35s77.4,27.5,77.4,84c0,56.6,0,134.8,0,134.8h-65.7c0,0,0-80.7,0-111.5
			c0-30.8-11.7-47.4-35.8-47.4c-26.6,0-39.9,17.5-39.9,47.4c0,32.5,0,111.5,0,111.5H1827.1z"/>
	</g>
	<g>
		<path d="M2165.8,634.9v600h299.6H2765v-600H2165.8z M2352.2,839.6c-21.6,0-39.1-17.5-39.1-39.1c0-21.6,17.5-39.1,39.1-39.1
			s39.1,17.5,39.1,39.1C2390.5,822.1,2373,839.6,2352.2,839.6z M2385.5,867.9v212.2h-65.7V867.9H2385.5z M2427.1,1080.1V867.9h63.2
			v28.3c0,0,19.1-35,64.1-35s77.4,27.5,77.4,84c0,56.6,0,134.8,0,134.8h-65.7c0,0,0-80.7,0-111.5c0-30.8-11.7-47.4-35.8-47.4
			c-26.6,0-39.9,17.5-39.9,47.4c0,32.5,0,111.5,0,111.5H2427.1z"/>
	</g>
</g>
</svg>
