<?xml version="1.0" encoding="utf-8"?>
<!-- Generator: Adobe Illustrator 18.1.0, SVG Export Plug-In . SVG Version: 6.00 Build 0)  -->
<svg version="1.1" id="Layer_1" xmlns="http://www.w3.org/2000/svg" xmlns:xlink="http://www.w3.org/1999/xlink" x="0px" y="0px"
	 viewBox="-43 45 512 512" enable-background="new -43 45 512 512" xml:space="preserve">
<path fill="#FFFFFF" d="M394.5,431.6L263.9,301l130.6-130.6c14.1-14.1,14.1-36.8,0-50.9s-36.8-14.1-50.9,0L213,250.1L82.4,119.5
	c-14.1-14.1-36.8-14.1-50.9,0s-14.1,36.8,0,50.9L162.1,301L31.5,431.6c-14.1,14.1-14.1,36.8,0,50.9s36.8,14.1,50.9,0L213,351.9
	l130.6,130.6c14.1,14.1,36.8,14.1,50.9,0C408.5,468.4,408.5,445.6,394.5,431.6z"/>
</svg>
