<?xml version="1.0" encoding="utf-8"?>
<!-- Generator: Adobe Illustrator 18.1.0, SVG Export Plug-In . SVG Version: 6.00 Build 0)  -->
<svg version="1.1" id="Layer_1" xmlns="http://www.w3.org/2000/svg" xmlns:xlink="http://www.w3.org/1999/xlink" x="0px" y="0px"
	 viewBox="1472.1 634.9 1198.2 600" enable-background="new 1472.1 634.9 1198.2 600" xml:space="preserve">
<g>
	<g>
		<path fill="#CB2128" d="M1472.1,634.9v600h299.6h299.6v-600H1472.1z M1758.4,1006.9c0,0-12.5,49.9-15,59.9
			c-9.2,34.1-36.6,68.2-39.1,70.7c-1.7,1.7-5,1.7-5-0.8c-0.8-4.2-7.5-47.4,0.8-82.4c4.2-17.5,28.3-118.2,28.3-118.2
			s-6.7-14.1-6.7-34.1c0-32.5,18.3-55.8,41.6-55.8c20,0,29.1,15,29.1,32.5c0,20-12.5,49.1-19.1,76.6c-5.8,23.3,11.7,41.6,34.1,41.6
			c40.8,0,69.1-52.4,69.1-115.7c0-47.4-31.6-83.2-89.9-83.2c-65.7,0-106.5,49.1-106.5,104c0,19.1,5.8,32.5,14.1,42.4
			c4.2,5,4.2,6.7,3.3,12.5c-0.8,4.2-3.3,13.3-4.2,17.5c-1.7,5.8-5.8,7.5-10.8,5.8c-30-12.5-44.1-45.8-44.1-83.2
			c0-61.6,51.6-135.6,154.8-135.6c82.4,0,137.3,59.9,137.3,124c0,84.9-47.4,149-117.3,149C1787.5,1033.5,1765.9,1021,1758.4,1006.9z
			"/>
	</g>
	<g>
		<path d="M2071.1,634.9v600h299.6h299.6v-600H2071.1z M2357.4,1006.9c0,0-12.5,49.9-15,59.9c-9.2,34.1-36.6,68.2-39.1,70.7
			c-1.7,1.7-5,1.7-5-0.8c-0.8-4.2-7.5-47.4,0.8-82.4c4.2-17.5,28.3-118.2,28.3-118.2s-6.7-14.1-6.7-34.1c0-32.5,18.3-55.8,41.6-55.8
			c20,0,29.1,15,29.1,32.5c0,20-12.5,49.1-19.1,76.6c-5.8,23.3,11.7,41.6,34.1,41.6c40.8,0,69.1-52.4,69.1-115.7
			c0-47.4-31.6-83.2-89.9-83.2c-65.7,0-106.5,49.1-106.5,104c0,19.1,5.8,32.5,14.1,42.4c4.2,5,4.2,6.7,3.3,12.5
			c-0.8,4.2-3.3,13.3-4.2,17.5c-1.7,5.8-5.8,7.5-10.8,5.8c-30-12.5-44.1-45.8-44.1-83.2c0-61.6,51.6-135.6,154.8-135.6
			c82.4,0,137.3,59.9,137.3,124c0,84.9-47.4,149-117.3,149C2386.5,1033.5,2364.9,1021,2357.4,1006.9z"/>
	</g>
</g>
</svg>
