<?xml version="1.0" encoding="utf-8"?>
<!-- Generator: Adobe Illustrator 18.1.0, SVG Export Plug-In . SVG Version: 6.00 Build 0)  -->
<svg version="1.1" id="Layer_1" xmlns="http://www.w3.org/2000/svg" xmlns:xlink="http://www.w3.org/1999/xlink" x="0px" y="0px"
	 viewBox="0 0 393.9 393.5" enable-background="new 0 0 393.9 393.5" xml:space="preserve">
<path fill="#929292" d="M231.2,289.5c-48.7,25.8-98.1,27.5-147.5,2.6c-85.3-43-110.2-155-52.1-230.8c44.2-57.7,118.5-75.3,181-50
	c86.5,35.1,122,135.8,78.4,216.7c-1.8,3.4-1.5,5.2,1.2,8c32.6,32.4,65,65,97.7,97.4c3.5,3.5,4.6,6.8,3.9,11.5
	c-3.2,23-22.2,43.4-44.9,48c-7,1.4-12.4,0.7-18.1-5.3c-19.8-20.9-40.6-41-60.9-61.3c-12.4-12.4-24.7-24.7-37.2-37.2
	C231.8,289.3,231.4,289.3,231.2,289.5z M155,253.1c54.6-0.3,98-43.9,98-98.4c0-54.4-43.4-97.9-98.1-98.3
	c-54-0.4-98.7,44.2-98.7,98.5C56.3,209.2,100.7,253.3,155,253.1z"/>
</svg>
