<?xml version="1.0" encoding="utf-8"?>
<!-- Generator: Adobe Illustrator 18.1.0, SVG Export Plug-In . SVG Version: 6.00 Build 0)  -->
<svg version="1.1" id="Layer_1" xmlns="http://www.w3.org/2000/svg" xmlns:xlink="http://www.w3.org/1999/xlink" x="0px" y="0px"
	 viewBox="0 0 115.7 42.4" enable-background="new 0 0 115.7 42.4" xml:space="preserve">
<path fill="#CA3092" d="M105.4,0.1L90.2,21.7l0-21.7L80,0L65,22.3L65,0L55,0L40,22l0-22L29.6,0L0,42.2l12.7,0l4.2-6.3l12.6,0v1.2
	L26,42.2l12.5,0L55,18.1l0,24.1l8.4,0l16.3-24.1l0,18.4l-4.1,5.8l12.7,0l4.2-6.3l12.6,0l0,6.3l10.4,0l0-42.2L105.4,0.1z M22.8,27.2
	l6.7-9.9l0,9.9L22.8,27.2z M105.2,27.4l-6.7,0l6.7-9.9L105.2,27.4z"/>
</svg>
