<?xml version="1.0" encoding="utf-8"?>
<!-- Generator: Adobe Illustrator 18.1.0, SVG Export Plug-In . SVG Version: 6.00 Build 0)  -->
<svg version="1.1" id="Layer_1" xmlns="http://www.w3.org/2000/svg" xmlns:xlink="http://www.w3.org/1999/xlink" x="0px" y="0px"
	 viewBox="0 0 419.5 419.3" enable-background="new 0 0 419.5 419.3" xml:space="preserve">
<path fill="#929292" d="M78.1,418.8C240.6,414.1,381,297.9,413,134.2c4.3-22.2,6.6-44.5,6.5-67c0-10.3-3.9-19.2-11-26.6
	c-8.3-8.7-16.9-17-25.4-25.5C368-0.1,346.8-4.1,327,4.4C309.2,12,297.7,25.1,292.7,44c-4.3,16.4-9.1,32.7-13.3,49.1
	c-4.9,19.2-0.4,36.3,13.3,50.7c4.8,5.1,9.7,10.1,14.9,14.8c3,2.7,3.2,5.1,2.1,8.7c-13.8,44.5-39.1,81-76.3,109
	c-20.5,15.4-43,26.6-67.6,33.4c-1.8,0.5-4.6-0.2-5.9-1.4c-5.3-4.8-10.2-10.1-15.3-15.1c-14.7-14.4-32.2-18.7-52-13.7
	c-16.5,4.2-32.8,8.8-49.1,13.3C19.2,299.5,2.3,319.1,0.2,344c-1.2,14.5,3.5,27.3,13.7,37.8c9.3,9.5,18.6,19.1,28.3,28.2
	c7.1,6.7,16.4,8.6,25.8,9.3C71.6,419.5,75.3,419,78.1,418.8z"/>
</svg>
