<?xml version="1.0" encoding="utf-8"?>
<!-- Generator: Adobe Illustrator 18.1.0, SVG Export Plug-In . SVG Version: 6.00 Build 0)  -->
<svg version="1.1" id="Layer_1" xmlns="http://www.w3.org/2000/svg" xmlns:xlink="http://www.w3.org/1999/xlink" x="0px" y="0px"
	 viewBox="1284.7 634.9 1198.9 600" enable-background="new 1284.7 634.9 1198.9 600" xml:space="preserve">
<g>
	<g>
		<path fill="#4DC8F1" d="M1883.9,634.9h-599.2v600h599.2V634.9z M1538.5,1090.1c-39.1,0-75.7-11.7-106.5-31.6
			c36.6,4.2,74.1-5.8,103.2-29.1c-30.8-0.8-55.8-20.8-64.9-48.3c10.8,1.7,21.6,1.7,31.6-0.8c-33.3-6.7-56.6-36.6-55.8-69.1
			c9.2,5,20,8.3,31.6,8.3c-30.8-20.8-39.9-61.6-21.6-92.4c34.1,42.4,85.7,69.9,143.1,72.4c-10-43.3,22.5-85.7,67.4-85.7
			c20,0,38.3,8.3,50.8,21.6c15.8-3.3,30.8-9.2,44.1-16.6c-5,16.6-15.8,30-30.8,38.3c14.1-1.7,27.5-5.8,39.9-10.8
			c-9.2,14.1-20.8,25.8-35,35.8C1739.9,981.1,1667.5,1090.1,1538.5,1090.1z"/>
	</g>
	<g>
		<path d="M2483.6,634.9h-599.2v600h599.2V634.9z M2138.2,1090.1c-39.1,0-75.7-11.7-106.5-31.6c36.6,4.2,74.1-5.8,103.2-29.1
			c-30.8-0.8-55.8-20.8-64.9-48.3c10.8,1.7,21.6,1.7,31.6-0.8c-33.3-6.7-56.6-36.6-55.8-69.1c9.2,5,20,8.3,31.6,8.3
			c-30.8-20.8-39.9-61.6-21.6-92.4c34.1,42.4,85.7,69.9,143.1,72.4c-10-43.3,22.5-85.7,67.4-85.7c20,0,38.3,8.3,50.8,21.6
			c15.8-3.3,30.8-9.2,44.1-16.6c-5,16.6-15.8,30-30.8,38.3c14.1-1.7,27.5-5.8,39.9-10.8c-9.2,14.1-20.8,25.8-35,35.8
			C2339.6,981.1,2267.2,1090.1,2138.2,1090.1z"/>
	</g>
</g>
</svg>
